<svg xmlns="http://www.w3.org/2000/svg" xmlns:xlink="http://www.w3.org/1999/xlink" width="500" zoomAndPan="magnify" viewBox="0 0 375 374.999991" height="500" preserveAspectRatio="xMidYMid meet" version="1.0"><defs><g></g></defs><g fill="#000000" fill-opacity="1"><g transform="translate(83.571913, 186.232137)"><g><path d="M 21.28125 -26.53125 L 25.578125 -26.53125 L 13.484375 0.234375 L 0.53125 -26.53125 L 4.109375 -26.53125 L 14.75 -4.484375 L 20.90625 -18.28125 C 21.53125 -19.695312 21.9375 -21.0625 22.125 -22.375 C 22.320312 -23.695312 22.039062 -25.082031 21.28125 -26.53125 Z M 21.28125 -26.53125 "></path></g></g></g><g fill="#000000" fill-opacity="1"><g transform="translate(133.384574, 186.232137)"><g><path d="M 3 0 L 3 -26.53125 L 6.125 -26.53125 L 6.125 0 Z M 3 0 "></path></g></g></g><g fill="#000000" fill-opacity="1"><g transform="translate(166.138718, 186.232137)"><g><path d="M 27.78125 -26.53125 L 27.78125 -22.953125 C 27.070312 -23.609375 26.375 -24.117188 25.6875 -24.484375 C 25 -24.859375 24.328125 -25.144531 23.671875 -25.34375 C 23.015625 -25.550781 22.34375 -25.675781 21.65625 -25.71875 C 20.976562 -25.769531 20.28125 -25.796875 19.5625 -25.796875 L 15.734375 -25.796875 L 15.734375 0 L 12.65625 0 L 12.65625 -25.796875 L 8.8125 -25.796875 C 8.101562 -25.796875 7.410156 -25.769531 6.734375 -25.71875 C 6.066406 -25.675781 5.394531 -25.550781 4.71875 -25.34375 C 4.050781 -25.144531 3.378906 -24.859375 2.703125 -24.484375 C 2.035156 -24.117188 1.335938 -23.609375 0.609375 -22.953125 L 0.609375 -26.53125 Z M 27.78125 -26.53125 "></path></g></g></g><g fill="#000000" fill-opacity="1"><g transform="translate(218.192921, 186.232137)"><g><path d="M 24.4375 0 L 20.859375 0 L 16.953125 -8.65625 L 5.09375 -8.65625 L 4.90625 -8.25 C 4.269531 -6.832031 3.910156 -5.460938 3.828125 -4.140625 C 3.753906 -2.828125 4.097656 -1.445312 4.859375 0 L 0.5625 0 L 10.5625 -22.765625 L 8.859375 -26.53125 L 12.203125 -26.53125 Z M 16.609375 -9.390625 L 10.984375 -21.84375 L 5.4375 -9.390625 Z M 16.609375 -9.390625 "></path></g></g></g><g fill="#000000" fill-opacity="1"><g transform="translate(266.78983, 186.232137)"><g><path d="M 15.15625 -0.71875 C 15.863281 -0.71875 16.5625 -0.742188 17.25 -0.796875 C 17.9375 -0.847656 18.609375 -0.972656 19.265625 -1.171875 C 19.921875 -1.378906 20.59375 -1.671875 21.28125 -2.046875 C 21.96875 -2.429688 22.664062 -2.941406 23.375 -3.578125 L 23.375 0 L 3 0 L 3 -26.53125 L 22.921875 -26.53125 L 22.921875 -22.953125 C 22.203125 -23.609375 21.5 -24.117188 20.8125 -24.484375 C 20.132812 -24.859375 19.457031 -25.144531 18.78125 -25.34375 C 18.113281 -25.550781 17.4375 -25.675781 16.75 -25.71875 C 16.070312 -25.769531 15.378906 -25.796875 14.671875 -25.796875 L 6.125 -25.796875 L 6.125 -13.34375 L 10.40625 -13.34375 C 10.8125 -13.34375 11.273438 -13.351562 11.796875 -13.375 C 12.316406 -13.394531 12.875 -13.457031 13.46875 -13.5625 C 14.0625 -13.664062 14.691406 -13.832031 15.359375 -14.0625 C 16.035156 -14.289062 16.726562 -14.609375 17.4375 -15.015625 L 17.4375 -10.9375 C 16.726562 -11.34375 16.035156 -11.660156 15.359375 -11.890625 C 14.691406 -12.117188 14.0625 -12.285156 13.46875 -12.390625 C 12.875 -12.492188 12.316406 -12.554688 11.796875 -12.578125 C 11.273438 -12.597656 10.8125 -12.609375 10.40625 -12.609375 L 6.125 -12.609375 L 6.125 -0.71875 Z M 15.15625 -0.71875 "></path></g></g></g></svg>
